<?xml version="1.0" encoding="utf-8"?>
<!-- Generator: Adobe Illustrator 16.0.0, SVG Export Plug-In . SVG Version: 6.00 Build 0)  -->
<!DOCTYPE svg PUBLIC "-//W3C//DTD SVG 1.1//EN" "http://www.w3.org/Graphics/SVG/1.1/DTD/svg11.dtd">
<svg version="1.1" id="Capa_1" xmlns="http://www.w3.org/2000/svg" xmlns:xlink="http://www.w3.org/1999/xlink" x="0px" y="0px"
	 width="1000px" height="1000px" viewBox="0 0 1000 1000" enable-background="new 0 0 1000 1000" xml:space="preserve">
<rect x="-13" y="-39" width="1054" height="1080"/>
<circle fill="#FFFFFF" cx="514" cy="501" r="457"/>
<text transform="matrix(0.9784 -0.2065 0.2065 0.9784 177.02 604.3867)" font-family="'SambleTracie'" font-size="214">Emiretta</text>
<text transform="matrix(1 0.0055 -0.0055 1 488.7061 584.2715)" stroke="#000000" stroke-miterlimit="10" font-family="'NSimSun'" font-size="86">A r t e</text>
<path d="M200.768,780.402c1.892-0.288,3.726-1.118,5.504-2.494c1.776-1.376,3.526-2.967,5.246-4.773
	c1.72-1.806,3.397-3.654,5.031-5.547c1.634-1.892,3.253-3.453,4.859-4.687c1.604-1.232,3.195-2.007,4.773-2.322
	c1.576-0.314,3.139,0.215,4.687,1.591c-1.376,0.058-2.724,0.517-4.042,1.376c-1.32,0.86-2.638,1.95-3.956,3.269
	c-1.32,1.319-2.709,2.752-4.171,4.3c-1.462,1.548-3.04,3.038-4.73,4.472c-1.692,1.433-3.556,2.68-5.59,3.741
	c-2.036,1.061-4.314,1.763-6.837,2.107c-3.612,0.516-6.265,0.258-7.955-0.774c-1.692-1.032-2.752-2.58-3.182-4.644
	c-0.43-2.064-0.372-4.486,0.172-7.268c0.544-2.78,1.275-5.689,2.193-8.729c2.408-7.854,4.958-15.666,7.654-23.436
	c2.694-7.768,5.246-15.579,7.654-23.435c0.229-0.688,0.559-1.819,0.989-3.397c0.43-1.576,0.845-3.21,1.247-4.901
	c0.4-1.69,0.688-3.239,0.86-4.645c0.172-1.404,0.114-2.335-0.172-2.795c1.146-0.4,2.35-0.602,3.612-0.602
	c1.777,0,2.953,0.516,3.526,1.548c0.572,1.032,0.802,2.278,0.688,3.741c-0.116,1.462-0.43,3.039-0.946,4.729
	c-0.516,1.691-0.976,3.169-1.376,4.429c-2.466,8.2-5.117,16.341-7.955,24.425c-2.838,8.084-5.49,16.226-7.955,24.424
	c-0.23,0.804-0.516,1.878-0.86,3.225c-0.344,1.348-0.674,2.795-0.989,4.343c-0.316,1.549-0.559,3.111-0.731,4.688
	s-0.215,2.98-0.129,4.214c0.086,1.232,0.344,2.222,0.774,2.967C199.091,780.286,199.792,780.574,200.768,780.402z"/>
<path d="M262.344,730.78c0.572,0.746,0.802,1.935,0.688,3.569c-0.116,1.634-0.459,3.583-1.032,5.848
	c-0.574,2.266-1.29,4.772-2.15,7.525c-0.86,2.752-1.75,5.59-2.666,8.514c-0.172,0.573-0.473,1.634-0.903,3.182
	c-0.43,1.548-0.847,3.197-1.247,4.945c-0.402,1.749-0.688,3.354-0.86,4.815c-0.172,1.463-0.086,2.396,0.258,2.796
	c-0.918,0.287-1.792,0.473-2.623,0.559c-0.832,0.086-1.591,0.071-2.279-0.043c-0.46-0.057-0.918-0.172-1.376-0.344
	c-0.46-0.172-0.804-0.4-1.032-0.688c-0.288-0.286-0.488-0.773-0.602-1.462c-0.804,0.574-1.72,1.075-2.752,1.505
	c-1.032,0.431-2.208,0.731-3.526,0.903c-2.924,0.4-5.117-0.028-6.579-1.29c-1.462-1.261-2.438-2.952-2.924-5.074
	c-0.487-2.12-0.559-4.485-0.215-7.095c0.344-2.608,0.86-5.031,1.548-7.268c0.516-1.662,1.161-3.425,1.935-5.288
	c0.774-1.863,1.69-3.684,2.752-5.462c1.06-1.776,2.264-3.439,3.612-4.987c1.347-1.548,2.809-2.852,4.386-3.913
	c1.576-1.061,3.281-1.791,5.117-2.193c1.834-0.4,3.813-0.344,5.934,0.172c0.802-0.172,1.533-0.271,2.193-0.301
	c0.659-0.028,1.304-0.014,1.935,0.043c0.4,0.058,0.845,0.172,1.333,0.344C261.755,730.265,262.114,730.494,262.344,730.78z
	 M241.36,771.286c0.572-0.114,1.075-0.357,1.505-0.731c0.43-0.372,0.845-0.816,1.247-1.332c0.4-0.517,0.817-1.089,1.247-1.721
	c0.43-0.63,0.932-1.29,1.505-1.978c0.344-1.834,0.802-3.755,1.376-5.763c0.572-2.006,1.088-3.668,1.548-4.987
	c0.458-1.376,1.002-3.124,1.634-5.246c0.63-2.12,1.247-4.3,1.849-6.536s1.088-4.386,1.462-6.45c0.373-2.063,0.53-3.754,0.473-5.074
	c-1.319-0.458-2.681-0.229-4.085,0.688c-1.406,0.918-2.795,2.309-4.171,4.171c-1.376,1.864-2.666,4.1-3.87,6.708
	c-1.204,2.609-2.236,5.347-3.096,8.213c-0.86,2.695-1.448,5.289-1.763,7.783c-0.316,2.494-0.402,4.674-0.258,6.536
	c0.143,1.863,0.501,3.325,1.075,4.386C239.61,771.015,240.384,771.458,241.36,771.286z"/>
<path d="M308.697,730.78c0.572,0.746,0.802,1.935,0.688,3.569c-0.116,1.634-0.459,3.583-1.032,5.848
	c-0.574,2.266-1.29,4.772-2.15,7.525c-0.86,2.752-1.75,5.59-2.666,8.514c-0.172,0.573-0.473,1.634-0.903,3.182
	c-0.43,1.548-0.847,3.197-1.247,4.945c-0.402,1.749-0.688,3.354-0.86,4.815c-0.172,1.463-0.086,2.396,0.258,2.796
	c-0.918,0.287-1.792,0.473-2.623,0.559c-0.832,0.086-1.591,0.071-2.279-0.043c-0.46-0.057-0.918-0.172-1.376-0.344
	c-0.46-0.172-0.804-0.4-1.032-0.688c-0.288-0.286-0.488-0.773-0.602-1.462c-0.804,0.574-1.72,1.075-2.752,1.505
	c-1.032,0.431-2.208,0.731-3.526,0.903c-2.924,0.4-5.117-0.028-6.579-1.29c-1.462-1.261-2.438-2.952-2.924-5.074
	c-0.487-2.12-0.559-4.485-0.215-7.095c0.344-2.608,0.86-5.031,1.548-7.268c0.516-1.662,1.161-3.425,1.935-5.288
	c0.774-1.863,1.69-3.684,2.752-5.462c1.06-1.776,2.264-3.439,3.612-4.987c1.347-1.548,2.809-2.852,4.386-3.913
	c1.576-1.061,3.281-1.791,5.117-2.193c1.834-0.4,3.813-0.344,5.934,0.172c0.802-0.172,1.533-0.271,2.193-0.301
	c0.659-0.028,1.304-0.014,1.935,0.043c0.4,0.058,0.845,0.172,1.333,0.344C308.108,730.265,308.467,730.494,308.697,730.78z
	 M287.713,771.286c0.572-0.114,1.075-0.357,1.505-0.731c0.43-0.372,0.845-0.816,1.247-1.332c0.4-0.517,0.817-1.089,1.247-1.721
	c0.43-0.63,0.932-1.29,1.505-1.978c0.344-1.834,0.802-3.755,1.376-5.763c0.572-2.006,1.088-3.668,1.548-4.987
	c0.458-1.376,1.002-3.124,1.634-5.246c0.63-2.12,1.247-4.3,1.849-6.536s1.088-4.386,1.462-6.45c0.373-2.063,0.53-3.754,0.473-5.074
	c-1.319-0.458-2.681-0.229-4.085,0.688c-1.406,0.918-2.795,2.309-4.171,4.171c-1.376,1.864-2.666,4.1-3.87,6.708
	c-1.204,2.609-2.236,5.347-3.096,8.213c-0.86,2.695-1.448,5.289-1.763,7.783c-0.316,2.494-0.402,4.674-0.258,6.536
	c0.143,1.863,0.501,3.325,1.075,4.386C285.963,771.015,286.737,771.458,287.713,771.286z"/>
<path d="M308.438,771.458c-0.631-0.744-0.874-1.935-0.731-3.568c0.143-1.635,0.486-3.583,1.032-5.849
	c0.544-2.264,1.26-4.772,2.15-7.524c0.888-2.752,1.763-5.591,2.623-8.515c0.172-0.572,0.473-1.634,0.903-3.182
	s0.845-3.195,1.247-4.945c0.4-1.748,0.701-3.354,0.903-4.815c0.2-1.462,0.129-2.394-0.215-2.795c0.917-0.287,1.776-0.474,2.58-0.56
	c0.802-0.086,1.576-0.071,2.322,0.043c0.4,0.058,0.845,0.172,1.333,0.344c0.486,0.173,0.845,0.402,1.075,0.688
	c0.344,0.459,0.529,1.176,0.559,2.149c0.028,0.976-0.058,2.064-0.258,3.269c-0.202,1.204-0.488,2.48-0.86,3.827
	c-0.374,1.348-0.731,2.623-1.075,3.827c1.376-1.204,2.795-2.437,4.257-3.698c1.462-1.261,2.838-2.508,4.128-3.741
	c1.29-1.232,2.421-2.451,3.397-3.655c0.974-1.204,1.69-2.35,2.15-3.439c1.146,1.319,1.39,2.795,0.731,4.429
	c-0.66,1.634-1.849,3.369-3.569,5.203c-1.72,1.836-3.771,3.713-6.149,5.633c-2.38,1.922-4.687,3.799-6.923,5.633
	c-0.516,1.721-1.089,3.642-1.72,5.763c-0.632,2.121-1.176,4.214-1.634,6.277c-0.459,2.064-0.803,3.971-1.032,5.72
	c-0.23,1.749-0.202,3.082,0.086,3.999c-0.918,0.287-1.778,0.459-2.58,0.516c-0.804,0.058-1.578,0.058-2.322,0
	c-0.459-0.057-0.918-0.172-1.376-0.344C309.01,771.975,308.666,771.746,308.438,771.458z"/>
<path d="M332.518,771.458c-0.459-0.572-0.645-1.604-0.559-3.096c0.086-1.49,0.314-3.096,0.688-4.816
	c0.372-1.72,0.802-3.439,1.29-5.16c0.486-1.72,0.903-3.152,1.247-4.3c1.49-4.987,3.124-9.933,4.902-14.835
	c1.776-4.901,3.411-9.847,4.902-14.835l0.086-0.172c-2.408,0.46-4.831,0.86-7.267,1.204c-2.438,0.344-4.644,0.358-6.622,0.043
	c-1.978-0.314-3.583-1.104-4.816-2.365c-1.232-1.26-1.877-3.324-1.935-6.191c0.917,1.147,2.236,1.949,3.956,2.407
	c1.72,0.46,3.597,0.731,5.633,0.817c2.035,0.086,4.142,0.043,6.321-0.129c2.178-0.172,4.184-0.314,6.02-0.43
	c0.286-1.089,0.559-2.222,0.817-3.397c0.258-1.175,0.458-2.279,0.602-3.311c0.142-1.032,0.228-1.921,0.258-2.666
	c0.028-0.745-0.073-1.261-0.301-1.549c0.974-0.286,1.862-0.473,2.666-0.559c0.802-0.086,1.548-0.071,2.236,0.043
	c0.458,0.058,0.917,0.172,1.376,0.344c0.458,0.172,0.831,0.402,1.118,0.688c0.286,0.401,0.458,0.976,0.516,1.72
	c0.057,0.746,0.028,1.591-0.086,2.537c-0.115,0.946-0.301,1.965-0.559,3.053c-0.258,1.09-0.531,2.18-0.817,3.269
	c2.408,0.459,4.228,1.319,5.461,2.58c1.232,1.262,1.505,3.01,0.817,5.246c-0.172-1.261-0.774-2.308-1.806-3.14
	c-1.032-0.83-2.838-1.247-5.418-1.247h-0.086c-0.116,0.517-0.245,0.989-0.387,1.419c-0.144,0.431-0.273,0.847-0.387,1.247
	c-1.434,4.76-3.01,9.475-4.73,14.147c-1.72,4.674-3.297,9.389-4.73,14.146c-0.115,0.345-0.301,0.976-0.559,1.893
	c-0.258,0.918-0.559,1.992-0.903,3.225c-0.344,1.233-0.674,2.537-0.989,3.913c-0.316,1.376-0.574,2.681-0.774,3.913
	c-0.202,1.233-0.301,2.294-0.301,3.182c0,0.89,0.143,1.449,0.43,1.678c-0.918,0.287-1.778,0.459-2.58,0.516
	c-0.804,0.058-1.548,0.058-2.236,0c-0.46-0.057-0.933-0.172-1.419-0.344C333.105,771.975,332.746,771.746,332.518,771.458z"/>
<path d="M362.015,755.979c-0.804,0-1.621-0.172-2.451-0.517c-0.832-0.344-1.333-0.773-1.505-1.29
	c-0.688,1.721-1.176,3.556-1.462,5.504c-0.288,1.95-0.402,3.741-0.344,5.375c0.057,1.635,0.286,2.982,0.688,4.042
	c0.4,1.062,1.002,1.592,1.806,1.592c0.86,0,1.791-0.229,2.795-0.688c1.002-0.458,1.991-0.975,2.967-1.548
	c0.974-0.572,1.877-1.146,2.709-1.72c0.831-0.573,1.476-0.946,1.935-1.118c0.458-0.172,0.86-0.229,1.204-0.172
	c0.344,0.058,0.63,0.172,0.86,0.344c0.229,0.172,0.373,0.373,0.43,0.602c0.057,0.23,0.057,0.402,0,0.517
	c-0.516,0-1.19,0.301-2.021,0.902c-0.832,0.603-1.835,1.263-3.01,1.979c-1.176,0.718-2.537,1.362-4.085,1.935
	c-1.548,0.574-3.326,0.86-5.332,0.86c-2.81,0-4.831-0.716-6.063-2.15c-1.233-1.432-1.95-3.225-2.15-5.375
	c-0.2-2.149-0.058-4.5,0.43-7.052c0.486-2.55,1.075-4.915,1.763-7.095c0.745-2.522,1.734-5.045,2.967-7.568
	c1.232-2.522,2.694-4.801,4.386-6.837c1.69-2.034,3.612-3.683,5.762-4.945c2.15-1.26,4.543-1.92,7.181-1.978
	c1.376,0,2.421,0.33,3.139,0.989c0.716,0.659,1.189,1.534,1.419,2.623c0.229,1.09,0.244,2.337,0.043,3.74
	c-0.202,1.406-0.531,2.825-0.989,4.258c-0.459,1.548-1.09,3.196-1.892,4.944c-0.803,1.75-1.75,3.341-2.838,4.773
	c-1.09,1.434-2.337,2.638-3.741,3.612C365.21,755.492,363.677,755.979,362.015,755.979z M370.787,731.296
	c-0.688,0-1.419,0.345-2.193,1.032c-0.774,0.688-1.534,1.591-2.279,2.709c-0.746,1.118-1.492,2.38-2.236,3.784
	c-0.746,1.405-1.449,2.824-2.107,4.257c-0.66,1.434-1.247,2.824-1.763,4.171c-0.516,1.348-0.946,2.509-1.29,3.483
	c-0.288,0.688-0.245,1.233,0.129,1.634c0.372,0.401,0.86,0.688,1.462,0.86c0.602,0.172,1.218,0.244,1.849,0.215
	c0.63-0.028,1.088-0.1,1.376-0.215c0.745-0.4,1.49-1.061,2.236-1.979c0.745-0.916,1.447-1.948,2.107-3.096
	c0.658-1.146,1.232-2.322,1.72-3.526c0.486-1.204,0.903-2.292,1.247-3.268c0.286-0.975,0.559-2.05,0.817-3.226
	c0.258-1.174,0.4-2.264,0.43-3.268c0.028-1.003-0.058-1.849-0.258-2.537C371.833,731.641,371.417,731.296,370.787,731.296z"/>
<path d="M384.804,738.606c1.146-3.612,2.823-6.149,5.031-7.611c2.206-1.462,4.687-1.733,7.439-0.817
	c1.26,0.46,2.193,1.161,2.795,2.107s1.075,1.907,1.419,2.881c0.344,0.976,0.673,1.864,0.989,2.666
	c0.314,0.804,0.817,1.29,1.505,1.462c-1.204,0.517-2.266,0.688-3.182,0.517c-0.918-0.173-1.664-0.616-2.236-1.333
	c-0.574-0.717-1.019-1.635-1.333-2.752c-0.316-1.118-0.473-2.365-0.473-3.741c-1.032,0.804-1.878,1.749-2.537,2.838
	c-0.66,1.09-1.161,2.18-1.505,3.268c-0.574,1.95-0.847,3.728-0.817,5.332c0.028,1.606,0.2,3.111,0.516,4.516
	c0.314,1.405,0.731,2.752,1.247,4.042s0.959,2.58,1.333,3.87c0.373,1.29,0.602,2.623,0.688,3.999s-0.101,2.867-0.559,4.472
	c-0.516,1.777-1.319,3.225-2.408,4.343c-1.09,1.118-2.279,1.979-3.569,2.58c-1.29,0.602-2.567,0.976-3.827,1.118
	c-1.262,0.144-2.352,0.158-3.268,0.043c-1.72-0.229-3.025-0.76-3.913-1.591c-0.89-0.831-1.634-1.69-2.236-2.58
	c-0.602-0.889-1.174-1.721-1.72-2.494c-0.544-0.774-1.333-1.247-2.365-1.419c2.064-0.4,3.569-0.387,4.515,0.043
	c0.946,0.43,1.677,1.032,2.193,1.806c0.516,0.774,0.974,1.649,1.376,2.623c0.4,0.976,1.088,1.807,2.064,2.494
	c1.548-0.744,2.694-1.705,3.44-2.881c0.745-1.175,1.346-2.479,1.806-3.913c0.744-2.408,0.888-4.601,0.43-6.579
	c-0.459-1.978-1.032-3.956-1.72-5.934c-0.688-1.979-1.247-4.027-1.677-6.149C383.815,743.71,384,741.302,384.804,738.606z"/>
<path d="M434.168,730.78c0.572,0.746,0.802,1.935,0.688,3.569c-0.116,1.634-0.459,3.583-1.032,5.848
	c-0.574,2.266-1.29,4.772-2.15,7.525c-0.86,2.752-1.75,5.59-2.666,8.514c-0.172,0.573-0.473,1.634-0.903,3.182
	c-0.43,1.548-0.847,3.197-1.247,4.945c-0.402,1.749-0.688,3.354-0.86,4.815c-0.172,1.463-0.086,2.396,0.258,2.796
	c-0.918,0.287-1.792,0.473-2.623,0.559c-0.832,0.086-1.591,0.071-2.279-0.043c-0.46-0.057-0.918-0.172-1.376-0.344
	c-0.46-0.172-0.804-0.4-1.032-0.688c-0.288-0.286-0.488-0.773-0.602-1.462c-0.804,0.574-1.72,1.075-2.752,1.505
	c-1.032,0.431-2.208,0.731-3.526,0.903c-2.924,0.4-5.117-0.028-6.579-1.29c-1.462-1.261-2.438-2.952-2.924-5.074
	c-0.487-2.12-0.559-4.485-0.215-7.095c0.344-2.608,0.86-5.031,1.548-7.268c0.516-1.662,1.161-3.425,1.935-5.288
	c0.774-1.863,1.69-3.684,2.752-5.462c1.06-1.776,2.264-3.439,3.612-4.987c1.347-1.548,2.809-2.852,4.386-3.913
	c1.576-1.061,3.281-1.791,5.117-2.193c1.834-0.4,3.813-0.344,5.934,0.172c0.802-0.172,1.533-0.271,2.193-0.301
	c0.659-0.028,1.304-0.014,1.935,0.043c0.4,0.058,0.845,0.172,1.333,0.344C433.579,730.265,433.938,730.494,434.168,730.78z
	 M413.184,771.286c0.572-0.114,1.075-0.357,1.505-0.731c0.43-0.372,0.845-0.816,1.247-1.332c0.4-0.517,0.817-1.089,1.247-1.721
	c0.43-0.63,0.932-1.29,1.505-1.978c0.344-1.834,0.802-3.755,1.376-5.763c0.572-2.006,1.088-3.668,1.548-4.987
	c0.458-1.376,1.002-3.124,1.634-5.246c0.63-2.12,1.247-4.3,1.849-6.536s1.088-4.386,1.462-6.45c0.373-2.063,0.53-3.754,0.473-5.074
	c-1.319-0.458-2.681-0.229-4.085,0.688c-1.406,0.918-2.795,2.309-4.171,4.171c-1.376,1.864-2.666,4.1-3.87,6.708
	c-1.204,2.609-2.236,5.347-3.096,8.213c-0.86,2.695-1.448,5.289-1.763,7.783c-0.316,2.494-0.402,4.674-0.258,6.536
	c0.143,1.863,0.501,3.325,1.075,4.386C411.434,771.015,412.208,771.458,413.184,771.286z"/>
<path d="M449.045,730.694c0.458,0.632,0.688,1.491,0.688,2.58c1.318-1.089,2.636-1.964,3.956-2.623
	c1.318-0.658,2.636-0.989,3.956-0.989c2.408,0,4.156,0.617,5.246,1.849c1.088,1.234,1.733,2.839,1.935,4.816
	c0.2,1.978,0.043,4.186-0.473,6.622c-0.516,2.438-1.147,4.831-1.892,7.181c-0.23,0.632-0.531,1.591-0.903,2.881
	c-0.374,1.29-0.789,2.696-1.247,4.215c-0.459,1.52-0.917,3.096-1.376,4.729c-0.459,1.634-0.832,3.154-1.118,4.558
	c-0.288,1.406-0.473,2.61-0.559,3.612c-0.086,1.004,0.013,1.621,0.301,1.85c-0.917,0.287-1.778,0.459-2.58,0.516
	c-0.804,0.058-1.548,0.029-2.236-0.086c-0.459-0.057-0.933-0.157-1.419-0.301c-0.488-0.143-0.847-0.357-1.075-0.646
	c-0.287-0.344-0.488-0.787-0.602-1.333c-0.116-0.544-0.101-1.304,0.043-2.279c0.142-0.974,0.415-2.249,0.817-3.826
	c0.4-1.576,0.974-3.569,1.72-5.978c0.287-1.032,0.716-2.393,1.29-4.085c0.573-1.69,1.146-3.511,1.72-5.461
	c0.572-1.948,1.131-3.913,1.677-5.891c0.544-1.979,0.932-3.77,1.161-5.375c0.229-1.604,0.271-2.909,0.129-3.913
	c-0.144-1.003-0.559-1.505-1.247-1.505c-0.917,0-2.05,0.502-3.397,1.505c-1.348,1.004-2.738,2.223-4.171,3.655
	c-0.459,2.465-1.204,5.361-2.236,8.686c-1.032,3.326-2.122,6.823-3.268,10.492c-0.172,0.573-0.488,1.634-0.946,3.182
	c-0.46,1.548-0.903,3.197-1.333,4.945c-0.43,1.749-0.731,3.354-0.903,4.815c-0.172,1.462-0.029,2.395,0.43,2.795
	c-0.918,0.288-1.792,0.474-2.623,0.56c-0.832,0.086-1.591,0.072-2.279-0.043c-0.46-0.057-0.918-0.172-1.376-0.344
	c-0.46-0.173-0.804-0.4-1.032-0.688c-0.516-0.572-0.731-1.562-0.645-2.967c0.086-1.404,0.314-2.938,0.688-4.602
	c0.372-1.662,0.817-3.311,1.333-4.944s0.946-3.023,1.29-4.171c0.286-0.803,0.587-1.721,0.903-2.752
	c0.314-1.032,0.645-2.15,0.989-3.354c-1.147,0.517-2.094,0.316-2.838-0.602c0.516-0.172,1.118-0.588,1.806-1.247
	c0.688-0.658,1.433-1.476,2.236-2.451c0.802-2.866,1.432-5.604,1.892-8.213c0.458-2.608,0.544-4.571,0.258-5.892
	c0.917-0.286,1.776-0.458,2.58-0.516c0.802-0.057,1.576-0.057,2.322,0c0.4,0.058,0.845,0.172,1.333,0.344
	C448.457,730.178,448.815,730.408,449.045,730.694z"/>
<path d="M466.159,771.458c-0.574-0.744-0.788-1.935-0.645-3.568c0.143-1.635,0.486-3.583,1.032-5.849
	c0.544-2.264,1.26-4.772,2.15-7.524c0.888-2.752,1.763-5.591,2.623-8.515c0.172-0.572,0.473-1.634,0.903-3.182
	c0.43-1.548,0.845-3.195,1.247-4.945c0.4-1.748,0.688-3.354,0.86-4.815c0.172-1.462,0.086-2.394-0.258-2.795
	c0.974-0.287,1.862-0.474,2.666-0.56c0.802-0.086,1.548-0.071,2.236,0.043c0.458,0.058,0.917,0.172,1.376,0.344
	c0.458,0.173,0.831,0.402,1.118,0.688c0.458,0.632,0.645,1.634,0.559,3.01s-0.316,2.896-0.688,4.559
	c-0.374,1.663-0.817,3.325-1.333,4.987c-0.516,1.664-0.946,3.04-1.29,4.128c-0.516,1.548-1.118,3.483-1.806,5.806
	c-0.688,2.321-1.333,4.687-1.935,7.095s-1.062,4.674-1.376,6.794c-0.315,2.122-0.331,3.728-0.043,4.816
	c-0.976,0.287-1.864,0.459-2.666,0.516c-0.804,0.058-1.548,0.058-2.236,0c-0.459-0.057-0.918-0.172-1.376-0.344
	C466.818,771.975,466.445,771.746,466.159,771.458z"/>
<path d="M513.287,730.78c0.572,0.746,0.802,1.935,0.688,3.569c-0.115,1.634-0.459,3.583-1.032,5.848
	c-0.573,2.266-1.29,4.772-2.149,7.525c-0.86,2.752-1.75,5.59-2.666,8.514c-0.172,0.573-0.474,1.634-0.903,3.182
	c-0.431,1.548-0.847,3.197-1.247,4.945c-0.402,1.749-0.688,3.354-0.859,4.815c-0.173,1.463-0.087,2.396,0.258,2.796
	c-0.918,0.287-1.793,0.473-2.623,0.559c-0.832,0.086-1.592,0.071-2.279-0.043c-0.46-0.057-0.918-0.172-1.376-0.344
	c-0.46-0.172-0.804-0.4-1.032-0.688c-0.288-0.286-0.488-0.773-0.602-1.462c-0.804,0.574-1.72,1.075-2.752,1.505
	c-1.032,0.431-2.208,0.731-3.526,0.903c-2.924,0.4-5.117-0.028-6.579-1.29c-1.462-1.261-2.438-2.952-2.924-5.074
	c-0.487-2.12-0.559-4.485-0.215-7.095c0.344-2.608,0.86-5.031,1.548-7.268c0.516-1.662,1.161-3.425,1.935-5.288
	c0.774-1.863,1.69-3.684,2.752-5.462c1.06-1.776,2.264-3.439,3.612-4.987c1.347-1.548,2.809-2.852,4.386-3.913
	c1.576-1.061,3.281-1.791,5.117-2.193c1.834-0.4,3.813-0.344,5.934,0.172c0.803-0.172,1.533-0.271,2.193-0.301
	c0.658-0.028,1.304-0.014,1.936,0.043c0.4,0.058,0.845,0.172,1.332,0.344C512.697,730.265,513.057,730.494,513.287,730.78z
	 M492.303,771.286c0.572-0.114,1.075-0.357,1.505-0.731c0.43-0.372,0.845-0.816,1.247-1.332c0.4-0.517,0.817-1.089,1.247-1.721
	c0.43-0.63,0.932-1.29,1.505-1.978c0.344-1.834,0.802-3.755,1.376-5.763c0.572-2.006,1.088-3.668,1.548-4.987
	c0.458-1.376,1.002-3.124,1.634-5.246c0.63-2.12,1.247-4.3,1.849-6.536c0.603-2.236,1.089-4.386,1.463-6.45
	c0.372-2.063,0.529-3.754,0.473-5.074c-1.319-0.458-2.681-0.229-4.085,0.688c-1.406,0.918-2.795,2.309-4.171,4.171
	c-1.376,1.864-2.666,4.1-3.87,6.708c-1.204,2.609-2.236,5.347-3.096,8.213c-0.86,2.695-1.448,5.289-1.763,7.783
	c-0.316,2.494-0.402,4.674-0.258,6.536c0.143,1.863,0.501,3.325,1.075,4.386C490.553,771.015,491.327,771.458,492.303,771.286z"/>
<path d="M543.127,771.372c-0.115-0.114-0.23-0.344-0.344-0.688c-0.459,0.287-0.945,0.559-1.463,0.816
	c-0.516,0.258-1.09,0.445-1.719,0.56c-2.924,0.802-5.289,0.73-7.096-0.216c-1.806-0.945-3.111-2.464-3.912-4.558
	c-0.805-2.092-1.119-4.629-0.947-7.611c0.172-2.98,0.745-6.105,1.721-9.374c0.688-2.235,1.647-4.657,2.881-7.267
	c1.232-2.608,2.736-4.974,4.516-7.095c1.775-2.121,3.77-3.813,5.977-5.074c2.207-1.261,4.658-1.69,7.354-1.29
	c1.547,0.287,2.693,0.688,3.439,1.204l1.979-6.45c0.172-0.572,0.473-1.634,0.902-3.182s0.846-3.195,1.246-4.945
	c0.4-1.748,0.703-3.354,0.904-4.816c0.199-1.462,0.129-2.393-0.215-2.795c0.916-0.286,1.775-0.473,2.58-0.559
	c0.801-0.086,1.576-0.071,2.322,0.043c0.4,0.058,0.844,0.172,1.332,0.344c0.486,0.172,0.846,0.402,1.074,0.688
	c0.518,0.631,0.717,1.634,0.604,3.01c-0.117,1.376-0.359,2.896-0.732,4.558c-0.373,1.664-0.816,3.326-1.332,4.988
	c-0.516,1.664-0.945,3.04-1.291,4.128c-1.434,4.76-2.996,9.475-4.686,14.147c-1.693,4.673-3.256,9.389-4.688,14.146
	c-0.115,0.344-0.316,0.976-0.602,1.893c-0.289,0.917-0.59,1.992-0.904,3.225c-0.314,1.233-0.645,2.537-0.988,3.913
	s-0.602,2.681-0.773,3.913c-0.172,1.233-0.273,2.294-0.301,3.182c-0.031,0.89,0.129,1.449,0.473,1.677
	c-0.918,0.288-1.777,0.46-2.58,0.517c-0.805,0.058-1.578,0.058-2.322,0c-0.459-0.057-0.918-0.172-1.377-0.344
	C543.699,771.888,543.355,771.66,543.127,771.372z M545.793,754c0.975-3.268,2.021-6.536,3.139-9.804
	c1.119-3.269,2.25-6.536,3.396-9.804c-0.115-0.975-0.244-1.835-0.387-2.58s-0.615-1.118-1.418-1.118c-0.977,0-2.08,0.53-3.311,1.591
	c-1.234,1.062-2.467,2.509-3.699,4.343c-1.232,1.836-2.422,3.971-3.568,6.407c-1.148,2.438-2.15,5.003-3.01,7.697
	c-0.861,2.867-1.463,5.619-1.807,8.256c-0.344,2.638-0.402,4.902-0.172,6.794c0.229,1.892,0.744,3.311,1.549,4.257
	c0.801,0.946,1.891,1.161,3.268,0.646c0.516-0.173,1.002-0.416,1.461-0.731c0.459-0.314,0.889-0.673,1.291-1.075
	c0-1.032,0.113-2.221,0.344-3.568c0.229-1.347,0.516-2.709,0.859-4.085s0.701-2.709,1.076-3.999
	C545.176,755.936,545.506,754.86,545.793,754z"/>
<path d="M571.852,755.979c-0.805,0-1.621-0.172-2.451-0.517c-0.832-0.344-1.334-0.773-1.506-1.29
	c-0.688,1.721-1.176,3.556-1.461,5.504c-0.289,1.95-0.402,3.741-0.344,5.375c0.055,1.635,0.285,2.982,0.688,4.042
	c0.4,1.062,1.002,1.592,1.805,1.592c0.861,0,1.793-0.229,2.795-0.688c1.004-0.458,1.992-0.975,2.969-1.548
	c0.973-0.572,1.877-1.146,2.709-1.72c0.83-0.573,1.475-0.946,1.934-1.118s0.861-0.229,1.205-0.172
	c0.344,0.058,0.629,0.172,0.859,0.344c0.229,0.172,0.373,0.373,0.43,0.602c0.057,0.23,0.057,0.402,0,0.517
	c-0.516,0-1.189,0.301-2.021,0.902c-0.83,0.603-1.834,1.263-3.01,1.979c-1.176,0.718-2.537,1.362-4.084,1.935
	c-1.549,0.574-3.326,0.86-5.332,0.86c-2.811,0-4.832-0.716-6.063-2.15c-1.234-1.432-1.951-3.225-2.15-5.375
	c-0.201-2.149-0.059-4.5,0.43-7.052c0.486-2.55,1.074-4.915,1.764-7.095c0.744-2.522,1.732-5.045,2.967-7.568
	c1.232-2.522,2.693-4.801,4.385-6.837c1.691-2.034,3.613-3.683,5.762-4.945c2.15-1.26,4.545-1.92,7.182-1.978
	c1.377,0,2.422,0.33,3.139,0.989s1.189,1.534,1.42,2.623c0.229,1.09,0.242,2.337,0.043,3.74c-0.201,1.406-0.531,2.825-0.988,4.258
	c-0.461,1.548-1.09,3.196-1.893,4.944c-0.805,1.75-1.75,3.341-2.838,4.773c-1.09,1.434-2.338,2.638-3.742,3.612
	C575.047,755.492,573.514,755.979,571.852,755.979z M580.623,731.296c-0.688,0-1.42,0.345-2.193,1.032
	c-0.773,0.688-1.535,1.591-2.279,2.709c-0.746,1.118-1.49,2.38-2.236,3.784c-0.744,1.405-1.447,2.824-2.105,4.257
	c-0.66,1.434-1.248,2.824-1.764,4.171c-0.516,1.348-0.945,2.509-1.291,3.483c-0.287,0.688-0.244,1.233,0.131,1.634
	c0.371,0.401,0.859,0.688,1.461,0.86c0.602,0.172,1.217,0.244,1.85,0.215c0.629-0.028,1.088-0.1,1.375-0.215
	c0.744-0.4,1.49-1.061,2.236-1.979c0.744-0.916,1.447-1.948,2.107-3.096c0.658-1.146,1.232-2.322,1.721-3.526
	c0.486-1.204,0.902-2.292,1.246-3.268c0.287-0.975,0.559-2.05,0.816-3.226c0.258-1.174,0.4-2.264,0.43-3.268
	c0.029-1.003-0.057-1.849-0.258-2.537C581.668,731.641,581.254,731.296,580.623,731.296z"/>
<path d="M586.471,771.458c-0.459-0.572-0.645-1.604-0.559-3.096c0.086-1.49,0.314-3.096,0.688-4.816
	c0.373-1.72,0.816-3.439,1.334-5.16c0.516-1.72,0.945-3.152,1.289-4.3c1.49-4.987,3.109-9.933,4.859-14.835
	c1.748-4.901,3.367-9.847,4.859-14.835c0.172-0.572,0.473-1.634,0.902-3.182s0.846-3.195,1.246-4.945
	c0.4-1.748,0.703-3.354,0.904-4.815c0.199-1.463,0.129-2.394-0.215-2.796c0.916-0.286,1.775-0.473,2.58-0.559
	c0.801-0.086,1.547-0.071,2.234,0.043c0.459,0.058,0.932,0.172,1.42,0.344c0.486,0.172,0.846,0.402,1.074,0.688
	c0.459,0.632,0.646,1.634,0.561,3.01s-0.316,2.896-0.689,4.558c-0.373,1.664-0.816,3.326-1.332,4.988
	c-0.516,1.664-0.947,3.04-1.291,4.128c-1.434,4.76-2.996,9.475-4.686,14.147c-1.693,4.674-3.283,9.389-4.773,14.146
	c-0.115,0.345-0.301,0.976-0.559,1.893c-0.258,0.918-0.561,1.992-0.904,3.225c-0.344,1.233-0.674,2.537-0.988,3.913
	c-0.316,1.376-0.574,2.681-0.773,3.913c-0.203,1.233-0.301,2.294-0.301,3.182c0,0.89,0.172,1.449,0.516,1.678
	c-0.977,0.287-1.865,0.459-2.666,0.516c-0.805,0.058-1.549,0.058-2.236,0c-0.459-0.057-0.918-0.172-1.377-0.344
	S586.758,771.746,586.471,771.458z"/>
<path d="M618.805,771.458c-0.459-0.572-0.645-1.604-0.559-3.096c0.086-1.49,0.314-3.096,0.689-4.816
	c0.371-1.72,0.801-3.439,1.289-5.16c0.486-1.72,0.902-3.152,1.246-4.3c1.49-4.987,3.125-9.933,4.902-14.835
	c1.777-4.901,3.41-9.847,4.902-14.835c0.172-0.572,0.473-1.634,0.902-3.182c0.432-1.548,0.846-3.195,1.248-4.945
	c0.4-1.748,0.688-3.354,0.859-4.815c0.172-1.463,0.086-2.394-0.258-2.796c0.975-0.286,1.863-0.473,2.666-0.559
	s1.549-0.071,2.236,0.043c0.459,0.058,0.916,0.172,1.375,0.344s0.832,0.402,1.119,0.688c0.457,0.632,0.645,1.634,0.559,3.01
	s-0.316,2.896-0.688,4.558c-0.373,1.664-0.816,3.326-1.334,4.988c-0.516,1.664-0.945,3.04-1.289,4.128l-1.549,4.73
	c0.572-0.229,1.162-0.415,1.764-0.56c0.602-0.143,1.275-0.271,2.021-0.387c2.924-0.4,5.117,0.029,6.578,1.29
	c1.463,1.262,2.422,2.953,2.881,5.074c0.459,2.122,0.529,4.486,0.215,7.095c-0.314,2.609-0.816,5.031-1.504,7.267
	c-1.033,3.269-2.365,6.394-4,9.374c-1.633,2.982-3.482,5.52-5.547,7.611c-2.064,2.094-4.287,3.612-6.664,4.559
	c-2.381,0.945-4.803,1.017-7.268,0.215c-0.803,0.229-1.563,0.358-2.279,0.387c-0.717,0.029-1.391,0.015-2.021-0.043
	c-0.459-0.057-0.932-0.172-1.418-0.344C619.393,771.975,619.033,771.746,618.805,771.458z M629.211,754.172
	c-0.115,0.46-0.373,1.363-0.773,2.709c-0.402,1.348-0.816,2.854-1.246,4.516c-0.432,1.663-0.805,3.325-1.119,4.987
	c-0.316,1.664-0.445,3.011-0.387,4.042c1.203,0.746,2.521,0.703,3.957-0.129c1.432-0.83,2.85-2.206,4.256-4.128
	c1.404-1.92,2.738-4.228,4-6.923c1.26-2.694,2.35-5.504,3.268-8.428c0.803-2.694,1.361-5.26,1.676-7.697
	c0.314-2.437,0.416-4.571,0.303-6.407c-0.117-1.834-0.461-3.281-1.033-4.343c-0.574-1.061-1.348-1.591-2.322-1.591
	c-0.746,0-1.404,0.301-1.977,0.903c-0.574,0.602-1.176,1.362-1.807,2.278c-1.148,3.44-2.322,6.824-3.525,10.148
	C631.275,747.436,630.186,750.79,629.211,754.172z"/>
<path d="M665.59,771.544c-0.289-0.286-0.475-0.645-0.561-1.075c-0.086-0.43-0.158-0.931-0.215-1.505
	c-1.262,1.032-2.551,1.879-3.869,2.537c-1.32,0.66-2.639,0.989-3.957,0.989c-2.406,0-4.156-0.615-5.244-1.849
	c-1.09-1.232-1.736-2.839-1.936-4.816c-0.201-1.978-0.043-4.185,0.473-6.622c0.516-2.437,1.146-4.829,1.893-7.181
	c0.172-0.631,0.457-1.591,0.859-2.881c0.4-1.29,0.83-2.694,1.289-4.215c0.459-1.518,0.918-3.096,1.377-4.729s0.83-3.152,1.117-4.558
	c0.287-1.404,0.475-2.594,0.561-3.569c0.086-0.975-0.016-1.604-0.301-1.893c0.916-0.286,1.775-0.458,2.578-0.516
	c0.803-0.057,1.549-0.028,2.236,0.086c0.459,0.058,0.932,0.158,1.42,0.301c0.486,0.145,0.846,0.359,1.074,0.646
	c0.287,0.344,0.486,0.789,0.602,1.333c0.115,0.545,0.1,1.305-0.043,2.279s-0.416,2.25-0.816,3.826
	c-0.402,1.578-0.975,3.569-1.721,5.978c-0.287,1.032-0.717,2.395-1.289,4.085c-0.574,1.691-1.148,3.513-1.721,5.461
	c-0.572,1.949-1.133,3.913-1.676,5.891c-0.547,1.979-0.934,3.771-1.162,5.375c-0.229,1.606-0.287,2.911-0.172,3.913
	c0.115,1.004,0.545,1.505,1.291,1.505c0.916,0,2.033-0.501,3.354-1.505c1.318-1.002,2.723-2.221,4.215-3.655
	c0.457-2.464,1.203-5.345,2.234-8.643c1.033-3.296,2.121-6.779,3.27-10.449c0.172-0.572,0.486-1.634,0.945-3.182
	s0.902-3.195,1.332-4.945c0.432-1.748,0.717-3.354,0.861-4.815c0.143-1.462,0.014-2.394-0.387-2.795
	c0.916-0.287,1.791-0.474,2.623-0.56c0.83-0.086,1.59-0.071,2.277,0.043c0.459,0.058,0.918,0.172,1.377,0.344
	c0.459,0.173,0.803,0.402,1.031,0.688c0.518,0.632,0.732,1.634,0.646,3.01s-0.332,2.896-0.732,4.559s-0.859,3.325-1.375,4.987
	c-0.516,1.664-0.947,3.04-1.291,4.128l-1.805,6.021c1.031-0.458,1.977-0.258,2.838,0.602c-0.516,0.23-1.133,0.675-1.85,1.333
	c-0.717,0.66-1.477,1.478-2.279,2.451c-0.746,2.868-1.348,5.604-1.807,8.213c-0.459,2.609-0.545,4.573-0.258,5.892
	c-0.918,0.287-1.777,0.459-2.58,0.516s-1.576,0.057-2.32,0c-0.402-0.057-0.848-0.172-1.334-0.344
	C666.176,772.061,665.818,771.832,665.59,771.544z"/>
<path d="M693.453,755.979c-0.805,0-1.621-0.172-2.451-0.517c-0.832-0.344-1.334-0.773-1.506-1.29
	c-0.688,1.721-1.176,3.556-1.461,5.504c-0.289,1.95-0.402,3.741-0.344,5.375c0.055,1.635,0.285,2.982,0.688,4.042
	c0.4,1.062,1.002,1.592,1.805,1.592c0.861,0,1.793-0.229,2.795-0.688c1.004-0.458,1.992-0.975,2.969-1.548
	c0.973-0.572,1.877-1.146,2.709-1.72c0.83-0.573,1.475-0.946,1.934-1.118s0.861-0.229,1.205-0.172
	c0.344,0.058,0.629,0.172,0.859,0.344c0.229,0.172,0.373,0.373,0.43,0.602c0.057,0.23,0.057,0.402,0,0.517
	c-0.516,0-1.189,0.301-2.021,0.902c-0.83,0.603-1.834,1.263-3.01,1.979c-1.176,0.718-2.537,1.362-4.084,1.935
	c-1.549,0.574-3.326,0.86-5.332,0.86c-2.811,0-4.832-0.716-6.063-2.15c-1.234-1.432-1.951-3.225-2.15-5.375
	c-0.201-2.149-0.059-4.5,0.43-7.052c0.486-2.55,1.074-4.915,1.764-7.095c0.744-2.522,1.732-5.045,2.967-7.568
	c1.232-2.522,2.693-4.801,4.385-6.837c1.691-2.034,3.613-3.683,5.762-4.945c2.15-1.26,4.545-1.92,7.182-1.978
	c1.377,0,2.422,0.33,3.139,0.989s1.189,1.534,1.42,2.623c0.229,1.09,0.242,2.337,0.043,3.74c-0.201,1.406-0.531,2.825-0.988,4.258
	c-0.461,1.548-1.09,3.196-1.893,4.944c-0.805,1.75-1.75,3.341-2.838,4.773c-1.09,1.434-2.338,2.638-3.742,3.612
	C696.648,755.492,695.115,755.979,693.453,755.979z M702.225,731.296c-0.688,0-1.42,0.345-2.193,1.032
	c-0.773,0.688-1.535,1.591-2.279,2.709c-0.746,1.118-1.49,2.38-2.236,3.784c-0.744,1.405-1.447,2.824-2.105,4.257
	c-0.66,1.434-1.248,2.824-1.764,4.171c-0.516,1.348-0.945,2.509-1.291,3.483c-0.287,0.688-0.244,1.233,0.131,1.634
	c0.371,0.401,0.859,0.688,1.461,0.86c0.602,0.172,1.217,0.244,1.85,0.215c0.629-0.028,1.088-0.1,1.375-0.215
	c0.744-0.4,1.49-1.061,2.236-1.979c0.744-0.916,1.447-1.948,2.107-3.096c0.658-1.146,1.232-2.322,1.721-3.526
	c0.486-1.204,0.902-2.292,1.246-3.268c0.287-0.975,0.559-2.05,0.816-3.226c0.258-1.174,0.4-2.264,0.43-3.268
	c0.029-1.003-0.057-1.849-0.258-2.537C703.27,731.641,702.855,731.296,702.225,731.296z"/>
<path d="M723.381,730.694c0.457,0.632,0.688,1.491,0.688,2.58c1.318-1.089,2.637-1.964,3.955-2.623
	c1.318-0.658,2.637-0.989,3.957-0.989c2.408,0,4.156,0.617,5.246,1.849c1.088,1.234,1.732,2.839,1.936,4.816
	c0.199,1.978,0.043,4.186-0.475,6.622c-0.516,2.438-1.146,4.831-1.891,7.181c-0.23,0.632-0.531,1.591-0.904,2.881
	s-0.789,2.696-1.246,4.215c-0.459,1.52-0.918,3.096-1.377,4.729s-0.832,3.154-1.117,4.558c-0.287,1.406-0.473,2.61-0.559,3.612
	c-0.086,1.004,0.014,1.621,0.301,1.85c-0.918,0.287-1.777,0.459-2.58,0.516c-0.805,0.058-1.549,0.029-2.236-0.086
	c-0.459-0.057-0.932-0.157-1.418-0.301c-0.488-0.143-0.848-0.357-1.076-0.646c-0.287-0.344-0.488-0.787-0.602-1.333
	c-0.115-0.544-0.102-1.304,0.043-2.279c0.143-0.974,0.416-2.249,0.816-3.826c0.4-1.576,0.975-3.569,1.721-5.978
	c0.285-1.032,0.717-2.393,1.289-4.085c0.572-1.69,1.146-3.511,1.721-5.461c0.572-1.948,1.131-3.913,1.678-5.891
	c0.543-1.979,0.93-3.77,1.16-5.375c0.229-1.604,0.271-2.909,0.129-3.913c-0.145-1.003-0.559-1.505-1.246-1.505
	c-0.918,0-2.051,0.502-3.398,1.505c-1.348,1.004-2.738,2.223-4.17,3.655c-0.459,2.465-1.205,5.361-2.236,8.686
	c-1.031,3.326-2.121,6.823-3.268,10.492c-0.172,0.573-0.488,1.634-0.947,3.182s-0.902,3.197-1.332,4.945
	c-0.43,1.749-0.73,3.354-0.902,4.815s-0.031,2.395,0.43,2.795c-0.918,0.288-1.793,0.474-2.623,0.56
	c-0.832,0.086-1.592,0.072-2.279-0.043c-0.459-0.057-0.918-0.172-1.377-0.344c-0.459-0.173-0.803-0.4-1.031-0.688
	c-0.516-0.572-0.73-1.562-0.645-2.967c0.086-1.404,0.314-2.938,0.688-4.602c0.373-1.662,0.816-3.311,1.334-4.944
	c0.516-1.634,0.945-3.023,1.289-4.171c0.287-0.803,0.588-1.721,0.902-2.752c0.314-1.032,0.646-2.15,0.99-3.354
	c-1.148,0.517-2.094,0.316-2.838-0.602c0.516-0.172,1.117-0.588,1.805-1.247c0.689-0.658,1.434-1.476,2.236-2.451
	c0.803-2.866,1.434-5.604,1.893-8.213c0.457-2.608,0.543-4.571,0.258-5.892c0.916-0.286,1.775-0.458,2.58-0.516
	c0.803-0.057,1.576-0.057,2.322,0c0.4,0.058,0.846,0.172,1.332,0.344S723.15,730.408,723.381,730.694z"/>
<path d="M749.867,792.872c-0.516-0.573-0.73-1.605-0.645-3.096c0.086-1.492,0.316-3.097,0.688-4.816
	c0.375-1.72,0.818-3.439,1.334-5.16c0.516-1.72,0.945-3.153,1.289-4.3c1.492-4.988,3.109-9.933,4.859-14.835
	c1.748-4.902,3.367-9.847,4.859-14.835c0.172-0.572,0.473-1.634,0.902-3.182s0.846-3.195,1.248-4.945
	c0.4-1.748,0.701-3.354,0.902-4.816c0.201-1.462,0.129-2.393-0.215-2.795c0.916-0.286,1.777-0.473,2.58-0.559
	s1.576-0.071,2.322,0.043c0.4,0.058,0.846,0.172,1.332,0.344s0.846,0.402,1.076,0.688c0.172,0.229,0.314,0.659,0.43,1.29
	c0.572-0.4,1.16-0.745,1.764-1.032c0.602-0.286,1.303-0.544,2.105-0.774c2.924-0.802,5.289-0.73,7.096,0.216
	c1.807,0.945,3.109,2.466,3.912,4.558c0.803,2.094,1.119,4.631,0.947,7.611c-0.172,2.981-0.746,6.105-1.721,9.374
	c-0.688,2.235-1.648,4.658-2.881,7.267c-1.234,2.609-2.738,4.975-4.516,7.095c-1.777,2.122-3.783,3.813-6.02,5.074
	c-2.236,1.262-4.674,1.69-7.311,1.29c-1.09-0.114-1.977-0.344-2.666-0.688c-0.688-0.344-1.262-0.744-1.719-1.203
	c-0.287,0.803-0.547,1.62-0.775,2.45c-0.229,0.831-0.486,1.647-0.773,2.451c-0.115,0.344-0.314,0.975-0.602,1.893
	c-0.287,0.916-0.588,1.991-0.902,3.225c-0.316,1.232-0.646,2.537-0.99,3.913s-0.602,2.68-0.773,3.913
	c-0.172,1.232-0.273,2.292-0.301,3.182c-0.029,0.889,0.129,1.447,0.473,1.677c-0.918,0.287-1.777,0.459-2.58,0.517
	c-0.803,0.057-1.576,0.057-2.322,0c-0.457-0.058-0.916-0.172-1.375-0.344C750.441,793.388,750.098,793.158,749.867,792.872z
	 M776.527,731.468c-1.49,0.574-2.695,1.521-3.611,2.839c-0.115,1.031-0.301,2.136-0.559,3.311c-0.258,1.176-0.547,2.352-0.861,3.526
	c-0.314,1.176-0.645,2.293-0.988,3.354c-0.344,1.062-0.631,1.993-0.859,2.795c-0.918,3.04-1.893,6.035-2.924,8.987
	c-1.033,2.953-2.064,5.948-3.098,8.987c0.174,0.745,0.271,1.477,0.303,2.192c0.027,0.718,0.086,1.376,0.172,1.979
	c0.086,0.602,0.242,1.09,0.473,1.462c0.229,0.373,0.629,0.559,1.203,0.559c0.975,0,2.064-0.529,3.268-1.591
	c1.205-1.061,2.438-2.508,3.699-4.343c1.26-1.834,2.465-3.97,3.611-6.407c1.146-2.437,2.15-5.001,3.01-7.697
	c0.861-2.866,1.463-5.618,1.807-8.256c0.344-2.637,0.4-4.902,0.172-6.794c-0.23-1.892-0.746-3.311-1.549-4.257
	S777.904,730.952,776.527,731.468z"/>
<path d="M821.074,730.78c0.572,0.746,0.803,1.935,0.688,3.569c-0.115,1.634-0.459,3.583-1.031,5.848
	c-0.574,2.266-1.289,4.772-2.15,7.525c-0.859,2.752-1.75,5.59-2.666,8.514c-0.172,0.573-0.473,1.634-0.902,3.182
	s-0.848,3.197-1.248,4.945c-0.4,1.749-0.688,3.354-0.859,4.815c-0.172,1.463-0.086,2.396,0.258,2.796
	c-0.918,0.287-1.793,0.473-2.623,0.559c-0.832,0.086-1.59,0.071-2.279-0.043c-0.459-0.057-0.916-0.172-1.375-0.344
	s-0.805-0.4-1.031-0.688c-0.289-0.286-0.488-0.773-0.604-1.462c-0.803,0.574-1.719,1.075-2.752,1.505
	c-1.031,0.431-2.207,0.731-3.525,0.903c-2.924,0.4-5.117-0.028-6.578-1.29c-1.463-1.261-2.439-2.952-2.926-5.074
	c-0.486-2.12-0.559-4.485-0.215-7.095c0.344-2.608,0.861-5.031,1.549-7.268c0.516-1.662,1.16-3.425,1.936-5.288
	c0.773-1.863,1.689-3.684,2.752-5.462c1.059-1.776,2.264-3.439,3.611-4.987c1.346-1.548,2.809-2.852,4.387-3.913
	c1.576-1.061,3.281-1.791,5.117-2.193c1.834-0.4,3.811-0.344,5.934,0.172c0.801-0.172,1.533-0.271,2.193-0.301
	c0.658-0.028,1.303-0.014,1.934,0.043c0.4,0.058,0.846,0.172,1.334,0.344C820.486,730.265,820.846,730.494,821.074,730.78z
	 M800.09,771.286c0.572-0.114,1.076-0.357,1.506-0.731c0.43-0.372,0.846-0.816,1.246-1.332c0.4-0.517,0.818-1.089,1.248-1.721
	c0.43-0.63,0.932-1.29,1.504-1.978c0.346-1.834,0.803-3.755,1.377-5.763c0.572-2.006,1.088-3.668,1.549-4.987
	c0.457-1.376,1.002-3.124,1.633-5.246c0.631-2.12,1.248-4.3,1.85-6.536s1.088-4.386,1.461-6.45c0.373-2.063,0.529-3.754,0.475-5.074
	c-1.32-0.458-2.682-0.229-4.086,0.688c-1.406,0.918-2.795,2.309-4.172,4.171c-1.375,1.864-2.666,4.1-3.869,6.708
	c-1.203,2.609-2.236,5.347-3.096,8.213c-0.859,2.695-1.449,5.289-1.764,7.783s-0.402,4.674-0.258,6.536
	c0.143,1.863,0.502,3.325,1.076,4.386C798.342,771.015,799.115,771.458,800.09,771.286z"/>
<path d="M835.953,730.694c0.457,0.632,0.688,1.491,0.688,2.58c1.318-1.089,2.637-1.964,3.955-2.623
	c1.318-0.658,2.637-0.989,3.957-0.989c2.408,0,4.156,0.617,5.246,1.849c1.088,1.234,1.732,2.839,1.936,4.816
	c0.199,1.978,0.043,4.186-0.475,6.622c-0.516,2.438-1.146,4.831-1.891,7.181c-0.23,0.632-0.531,1.591-0.904,2.881
	s-0.789,2.696-1.246,4.215c-0.459,1.52-0.918,3.096-1.377,4.729s-0.832,3.154-1.117,4.558c-0.287,1.406-0.473,2.61-0.559,3.612
	c-0.086,1.004,0.014,1.621,0.301,1.85c-0.918,0.287-1.777,0.459-2.58,0.516c-0.805,0.058-1.549,0.029-2.236-0.086
	c-0.459-0.057-0.932-0.157-1.418-0.301c-0.488-0.143-0.848-0.357-1.076-0.646c-0.287-0.344-0.488-0.787-0.602-1.333
	c-0.115-0.544-0.102-1.304,0.043-2.279c0.143-0.974,0.416-2.249,0.816-3.826c0.4-1.576,0.975-3.569,1.721-5.978
	c0.285-1.032,0.717-2.393,1.289-4.085c0.572-1.69,1.146-3.511,1.721-5.461c0.572-1.948,1.131-3.913,1.678-5.891
	c0.543-1.979,0.93-3.77,1.16-5.375c0.229-1.604,0.271-2.909,0.129-3.913c-0.145-1.003-0.559-1.505-1.246-1.505
	c-0.918,0-2.051,0.502-3.398,1.505c-1.348,1.004-2.738,2.223-4.17,3.655c-0.459,2.465-1.205,5.361-2.236,8.686
	c-1.031,3.326-2.121,6.823-3.268,10.492c-0.172,0.573-0.488,1.634-0.947,3.182s-0.902,3.197-1.332,4.945
	c-0.43,1.749-0.73,3.354-0.902,4.815s-0.031,2.395,0.43,2.795c-0.918,0.288-1.793,0.474-2.623,0.56
	c-0.832,0.086-1.592,0.072-2.279-0.043c-0.459-0.057-0.918-0.172-1.377-0.344c-0.459-0.173-0.803-0.4-1.031-0.688
	c-0.516-0.572-0.73-1.562-0.645-2.967c0.086-1.404,0.314-2.938,0.688-4.602c0.373-1.662,0.816-3.311,1.334-4.944
	c0.516-1.634,0.945-3.023,1.289-4.171c0.287-0.803,0.588-1.721,0.902-2.752c0.314-1.032,0.646-2.15,0.99-3.354
	c-1.148,0.517-2.094,0.316-2.838-0.602c0.516-0.172,1.117-0.588,1.805-1.247c0.689-0.658,1.434-1.476,2.236-2.451
	c0.803-2.866,1.434-5.604,1.893-8.213c0.457-2.608,0.543-4.571,0.258-5.892c0.916-0.286,1.775-0.458,2.58-0.516
	c0.803-0.057,1.576-0.057,2.322,0c0.4,0.058,0.846,0.172,1.332,0.344S835.723,730.408,835.953,730.694z"/>
<path d="M481.384,727.769h-7.625l11.875-11.77"/>
<path d="M514,53C266.577,53,66,253.577,66,501c0,247.424,200.577,448,448,448c247.424,0,448-200.576,448-448
	C962,253.577,761.424,53,514,53z M514,932.407C275.74,932.407,82.593,739.26,82.593,501S275.74,69.593,514,69.593
	c238.259,0,431.407,193.147,431.407,431.407S752.259,932.407,514,932.407z"/>
</svg>
